<svg width="100" height="12" viewBox="0 0 100 12" fill="none" xmlns="http://www.w3.org/2000/svg">
<path d="M0 1.02924C0.129163 1.51898 0.387112 1.9652 0.747047 2.32153C1.10698 2.67787 1.55577 2.93132 2.04678 3.05556H5.24269L5.40643 3.11988V11.1842H7.40058V3.13158L7.58187 3.06725H10.7807C11.2701 2.93968 11.7171 2.6851 12.0765 2.32928C12.4359 1.97346 12.695 1.52903 12.8275 1.04094V1.02047H0V1.02924ZM69.769 1.01754H67.7807V11.2076H76.886C77.3173 11.0406 77.7012 10.7705 78.004 10.4208C78.3068 10.0711 78.5192 9.65257 78.6228 9.20175H69.7632L69.769 1.01754ZM54.4678 3.02339C55.5263 2.73099 56.4152 1.90643 56.6287 1.0117L45.4883 1.02924V7.03801H54.6023V9.15205H47.4503C46.905 9.29338 46.396 9.54894 45.957 9.90179C45.5179 10.2547 45.1588 10.6968 44.9035 11.1988H56.5672V5.03801H47.4561V3.02339H54.4678ZM88.4357 11.2018H90.4123V7.10234H97.5994V11.2018H99.5731V5.05556L88.4357 5.04386V11.2018ZM24.9561 3.04678H32.5585C33.0565 2.92697 33.5121 2.67276 33.8756 2.31184C34.2391 1.95093 34.4965 1.49716 34.6199 1L22.8947 1C23.0193 1.49659 23.2771 1.94972 23.6404 2.31044C24.0037 2.67117 24.4587 2.92578 24.9561 3.04678ZM24.9561 7.0731H32.5585C33.0562 6.95269 33.5115 6.69828 33.8749 6.33746C34.2383 5.97664 34.4959 5.52319 34.6199 5.02632H22.8947C23.0199 5.52262 23.2779 5.97543 23.6411 6.33606C24.0043 6.69669 24.459 6.9515 24.9561 7.0731ZM24.9561 11.2076H32.5585C33.0562 11.0872 33.5115 10.8328 33.8749 10.472C34.2383 10.1111 34.4959 9.65769 34.6199 9.16082H22.8947C23.0196 9.65726 23.2775 10.1102 23.6408 10.4709C24.004 10.8316 24.4588 11.0863 24.9561 11.2076ZM90.193 3.05263H97.7953C98.2937 2.93299 98.7498 2.67889 99.1138 2.31799C99.4778 1.95709 99.7358 1.50323 99.8596 1.00585H88.1316C88.2555 1.50272 88.5132 1.95617 88.8766 2.31699C89.24 2.67781 89.6952 2.93222 90.193 3.05263Z" fill="black"/>
</svg>
